# xmcd
#
# Track frame offsets:
#	151
#	13526
#	27748
#	43430
#	60838
#	81936
#	98703
#	110129
#	123359
#	141629
#	153613
#	168459
#	189811
#
# Disc length: 2786 seconds
#
# Revision: 0
# Processed by: cddbd v1.5.2PL0 Copyright (c) Steve Scherf et al.
# Submitted via: EasyCDDAExtractor 2010.6.0.0
#
DISCID=b40ae00d
DTITLE=Edsilia Rombley - Sweet Soul Music
DYEAR=2013
DGENRE=Soul
TTITLE0=Get Ready
TTITLE1=At Last
TTITLE2=Don't Play That Song
TTITLE3=Baby Don't Change Your Mind
TTITLE4=You Are Everything (Feat. Trijntje Oosterhuis and Berget Lewis)
TTITLE5=If I Were Your Woman
TTITLE6=Sweet Soul Music
TTITLE7=Ain't No Mountain High Enough
TTITLE8=I Feel A Song (In My Heart Again)
TTITLE9=The Man That Said No
TTITLE10=I'm Gonna Make You Love Me (Duet With Ruben Hein)
TTITLE11=You Send Me
TTITLE12=Then You Can Tell Me Goodbye
EXTD=
EXTT0=
EXTT1=
EXTT2=
EXTT3=
EXTT4=
EXTT5=
EXTT6=
EXTT7=
EXTT8=
EXTT9=
EXTT10=
EXTT11=
EXTT12=
PLAYORDER=
